<?xml version="1.0" encoding="UTF-8"?><svg id="b" xmlns="http://www.w3.org/2000/svg" viewBox="0 0 768 435.69"><defs><style>.e{fill:#fff;}.f{fill:#191919;}</style></defs><g id="c"><g id="d"><path class="e" d="M384,435.69c-39.9,0-80.08-2.59-119.59-7.77-79.98-10.45-158.43-31.46-232.95-62.34l-31.46-13.04V83.15l31.46-13.04C106.07,39.22,184.42,18.22,264.41,7.77c39.51-5.18,79.7-7.77,119.59-7.77s80.08,2.59,119.59,7.77c79.98,10.45,158.43,31.46,232.95,62.34l31.46,13.04v269.39l-31.46,13.04c-74.61,30.88-152.97,51.88-232.95,62.34-39.51,5.18-79.79,7.77-119.59,7.77h0Z"/><path class="e" d="M384,408.94c-38.65,0-77.78-2.59-116.14-7.58-77.68-10.17-153.83-30.5-226.24-60.52l-14.96-6.23V100.99l14.96-6.23c72.41-30.02,148.56-50.35,226.24-60.52,38.36-4.99,77.39-7.58,116.14-7.58s77.78,2.59,116.14,7.58c77.68,10.17,153.83,30.5,226.24,60.52l14.96,6.23v233.62l-14.96,6.23c-72.41,30.02-148.56,50.35-226.24,60.52-38.36,4.99-77.39,7.58-116.14,7.58Z"/><path class="f" d="M384,31.94c38.46,0,77.3,2.49,115.47,7.48,77.2,10.07,152.87,30.31,224.9,60.13l11.7,4.89v226.62l-11.7,4.89c-72.02,29.83-147.69,50.06-224.9,60.13-38.17,4.99-77.01,7.48-115.47,7.48s-77.3-2.49-115.47-7.48c-77.2-10.07-152.87-30.31-224.9-60.13l-11.7-4.89V104.54l11.7-4.89c72.02-29.83,147.69-50.06,224.9-60.13,38.17-4.99,77.01-7.48,115.47-7.48M384,21.39c-38.94,0-78.26,2.59-116.81,7.58-78.16,10.26-154.69,30.69-227.58,60.9l-18.22,7.58v240.72l18.22,7.58c72.89,30.21,149.42,50.64,227.58,60.9,38.55,5.08,77.87,7.58,116.81,7.58s78.26-2.59,116.81-7.58c78.16-10.26,154.69-30.69,227.58-60.9l18.22-7.58V97.44l-18.22-7.58c-72.89-30.21-149.42-50.64-227.58-60.9-38.55-5.08-77.87-7.58-116.81-7.58h0Z"/><path class="f" d="M87.18,106.74c13.71-4.8,27.52-9.21,41.43-13.43,13.33,49.29,25.51,98.78,37.11,148.46-11.7-.48-23.4-1.05-35.1-1.73-1.92-9.78-3.84-19.47-5.75-29.25-11.32.19-22.63.38-33.95.58-1.82,8.63-3.74,17.36-5.66,25.99-11.41-.67-22.83-1.53-34.33-2.3,13.43-42.39,25.22-85.26,36.25-128.42h0v.1ZM96.86,183.46c7.29-.77,14.67-1.44,21.96-2.11-3.36-16.21-6.71-32.42-10.26-48.53-.67.19-.96.19-1.53.38-3.36,16.78-6.71,33.57-10.17,50.35h0v-.1Z"/><path class="f" d="M184.62,78.64c8.73-2.01,17.45-3.84,26.18-5.56,15.25,26.85,29.73,53.99,43.73,81.52.67,0,.96,0,1.63-.1v-89.09c10.74-1.53,21.48-2.88,32.22-4.03v184.33c-8.73-.19-17.55-.38-26.28-.58-14.19-29.54-28.77-58.98-44.02-88.04-.67,0-.96,0-1.63.1v86.6c-10.65-.38-21.29-.77-31.94-1.15V78.64h.1Z"/><path class="f" d="M315.24,58.89c17.26-1.25,34.53-2.11,51.88-2.49,46.8-.48,53.99,57.73,54.57,92.84v.29c-.48,35.87-6.33,96.86-54.57,97.15-17.26,0-34.53-.19-51.88-.48V58.89ZM360.31,202.26c24.94-.38,25.89-34.43,26.28-52.17v-.29c-.48-16.88-2.49-49.2-26.28-49.1-4.32,0-6.43.1-10.74.29v101.27h10.74Z"/><path class="f" d="M467.05,187.01c-13.43-43.25-26.76-86.51-39.9-129.76,12.18.67,24.26,1.44,36.35,2.49,6.62,25.03,13.23,50.06,19.95,75,.67,0,.96,0,1.63.1,6.52-23.5,13.04-46.99,19.76-70.49,12.08,1.73,24.07,3.55,36.06,5.66-13.71,39.13-26.85,78.35-39.61,117.77v57.45c-11.41.29-22.83.48-34.24.67v-58.89h0Z"/><path class="f" d="M567.75,75.19c10.07,2.21,20.14,4.41,30.21,6.91-5.66,24.17-11.12,48.34-16.5,72.5-6.91-.67-13.81-1.34-20.72-2.01,2.3-25.8,4.7-51.6,7-77.39Z"/><path class="f" d="M620.02,198.43v-2.11c10.55.48,21.1.96,31.65,1.53v.77c1.05,8.54,9.59,12.76,17.26,12.95,6.81.19,15.73-3.07,15.92-11.22h0c-.1-8.34-10.65-10.74-16.88-12.66-4.51-1.44-6.81-2.11-11.32-3.55-22.44-7.1-35.2-25.41-34.81-48.91h0c-.77-27.72,19.28-45.94,46.32-36.54,23.5,8.25,44.5,28.2,46.61,54.09v.86c-9.97-2.59-19.95-4.99-29.92-7.38,0-.38,0-.58-.19-1.05-1.44-8.25-8.54-13.91-16.3-15.82-9.11-2.3-13.81,1.53-13.81,7.96h0c0,8.63,9.02,13.52,16.02,16.02,4.51,1.82,6.71,2.78,11.22,4.6,18.03,7.1,35.2,19.66,35.1,40.76h0c.1,26.66-24.46,41.53-48.53,43.25-28,2.01-47.57-15.54-48.53-43.73h0l.19.19Z"/><path class="f" d="M52.56,300.76v-.67c4.22,1.44,6.33,2.11,10.55,3.45v.48c.96,7.1,7.48,11.99,13.81,14.1,7.38,2.49,12.66-.1,12.66-6.43h0c0-5.27-3.26-9.4-11.12-13.43-2.69-1.34-3.93-2.01-6.62-3.36-9.49-4.6-17.74-12.37-17.93-23.5h0c.19-12.18,11.99-17.45,22.63-16.21,12.08,1.34,22.25,11.7,23.02,23.98v.67c-4.22-.77-6.33-1.15-10.55-1.92v-.58c-.77-5.75-5.37-10.45-12.37-11.6-6.81-1.05-11.7,1.53-11.7,7.29h0c0,4.8,3.07,8.44,10.74,12.08,2.69,1.25,3.93,1.92,6.62,3.16,10.55,4.41,18.7,13.33,18.51,25.22h0c.58,14.19-11.99,20.33-24.07,15.25-11.03-4.7-23.02-14.67-23.98-27.81h0l-.19-.19Z"/><path class="f" d="M128.7,275.44c-7.67-1.05-11.51-1.63-19.18-2.78v-11.6c16.59,1.92,33.18,3.64,49.77,5.27v13.04c-7.77-.96-11.6-1.44-19.37-2.4v70.68c-4.51-1.25-6.71-1.92-11.22-3.26v-68.96Z"/><path class="f" d="M171.09,267.48c13.71,1.25,27.33,2.3,41.05,3.26v14.19c-9.97-.96-19.85-1.92-29.73-2.97v24.46c9.4,1.34,18.7,2.69,28.1,3.84v13.43c-9.4-1.34-18.8-2.78-28.1-4.41v25.8c9.88,2.01,19.85,4.03,29.73,5.85v14.19c-13.71-2.69-27.43-5.75-41.05-9.21v-88.52h0v.1Z"/><path class="f" d="M226.33,271.7c4.6.29,6.81.48,11.41.67v97.44c-4.6-.77-6.91-1.15-11.41-2.01v-96.1h0Z"/><path class="f" d="M250.89,322.62h0c.67-18.22,4.8-51.5,30.02-50.45,17.65.77,26.18,19.47,27.81,34.81v.67c-4.6-.19-6.91-.38-11.41-.58,0-.29,0-.38-.1-.67-1.15-8.73-7-17.93-16.21-18.51-16.4-1.15-17.84,24.65-18.32,35.68h0c.48,12.66,2.11,37.79,18.7,39.42,11.89,1.15,16.69-12.66,16.69-22.63v-2.11c-6.14-.48-9.3-.67-15.44-1.25v-13.81c8.92.67,17.84,1.25,26.76,1.82v12.85c.38,17.07-6.52,43.25-28.2,40.86-24.46-2.69-30.5-36.16-30.21-55.91h0l-.1-.19Z"/><path class="f" d="M322.62,276.01c13.91.38,27.91.58,41.81.67v15.82c-10.07-.1-20.24-.29-30.31-.58v28.29c9.49.38,19.08.58,28.68.77v14.96c-9.59-.19-19.08-.48-28.68-.86v29.83c10.07.48,20.14.86,30.31,1.05v15.82c-14-.29-27.91-.96-41.81-1.92v-103.86h0Z"/><path class="f" d="M378.73,276.78h26.18c16.88-.29,22.35,18.41,22.25,32.13v.19c0,10.84-2.78,23.59-12.18,30.11,4.7,13.91,9.4,27.81,14.1,41.72-5.27.29-7.96.38-13.23.58-4.22-13.04-8.44-26.09-12.66-39.13-5.08,0-7.67.1-12.85.1v39.61h-11.6v-105.21h0v-.1ZM403.66,327.9c8.82-.48,11.99-10.55,11.6-18.13v-.19c.29-7.38-2.78-17.55-11.8-17.65h-13.14v35.96c5.37,0,8.06,0,13.33-.1v.1Z"/><path class="f" d="M441.06,276.2c9.01-.19,17.93-.48,26.95-.77,13.52-1.34,19.85,13.14,19.56,24.46h0c0,8.54-3.07,18.99-11.51,22.63v1.25c10.45,1.53,15.06,13.62,14.67,23.11h0c.1,14-6.52,29.73-22.15,31.17-9.21.86-18.41,1.63-27.62,2.21v-104.06h.1ZM452.67,290.3v29.15c4.41-.19,6.71-.38,11.12-.58,8.25-.19,12.85-7.38,12.47-15.06h0c.38-6.91-3.26-14.48-11.03-14-5.08.19-7.58.29-12.56.48h0ZM452.67,332.6v32.32c5.37-.38,8.06-.58,13.43-1.05,8.73-.86,13.52-8.73,12.95-17.17h0c.19-8.63-4.32-15.54-13.43-14.96-5.18.38-7.77.48-12.95.77h0v.1Z"/><path class="f" d="M500.62,324.25h0c-.29-19.56,5.47-53.03,30.31-54.28,24.65-1.15,29.54,28.58,30.21,47.18h0c0,20.62-6.33,50.54-30.21,55.05-25.8,4.89-29.73-30.59-30.31-47.95h0ZM549.43,318.88h0c.1-11.22-2.49-35.1-18.51-33.85-16.78,1.34-18.13,25.8-18.61,37.98h0c.48,10.65,1.82,37.02,18.61,34.14,15.82-2.69,18.61-25.7,18.51-38.27h0Z"/><path class="f" d="M574.08,329.72v-60.32c4.51-.38,6.81-.58,11.32-.96v57.93c0,8.82,4.12,20.14,14.77,17.45,9.78-2.49,15.06-13.33,14.58-23.11v-54.86c4.51-.48,6.71-.67,11.22-1.15v54.76c.38,16.59-9.4,33.37-25.89,37.88-18.03,4.99-26.18-12.56-25.99-27.72h0v.1Z"/><path class="f" d="M637.47,263.45c4.7-.48,7-.77,11.6-1.25,3.45,18.89,7,37.69,10.65,56.49.29,0,.38-.1.67-.19,3.93-19.76,8.06-39.42,12.18-59.17,3.93-.48,5.85-.77,9.78-1.25,3.93,16.78,8.06,33.47,12.28,50.25.19,0,.38-.1.58-.19,3.36-17.74,6.91-35.48,10.45-53.13,4.51-.67,6.81-.96,11.32-1.63-5.75,23.21-11.12,46.61-16.4,69.91-4.12,1.63-6.14,2.4-10.26,3.93-4.41-15.82-8.54-31.74-12.56-47.76-.29,0-.38,0-.67.1-4.32,18.89-8.44,37.79-12.56,56.68-4.22,1.44-6.23,2.11-10.45,3.45-5.75-25.32-11.32-50.73-16.69-76.24h.1Z"/></g></g></svg>